/* XPM */
static char *_575646511032[] = {
/* columns rows colors chars-per-pixel */
"64 64 154 2 ",
"   c #573C27",
".  c #593D27",
"X  c #573C28",
"o  c #5A3D28",
"O  c #574526",
"+  c #5A4327",
"@  c #5B4C27",
"#  c #5C422A",
"$  c #5B4B2C",
"%  c #5B5027",
"&  c #5D522D",
"*  c #5B582A",
"=  c #5E4430",
"-  c #5E4A32",
";  c #5E5132",
":  c #604127",
">  c #62442C",
",  c #644A2E",
"<  c #69492F",
"1  c #62512F",
"2  c #634730",
"3  c #644A31",
"4  c #6A4A31",
"5  c #714F35",
"6  c #635231",
"7  c #635931",
"8  c #755436",
"9  c #785537",
"0  c #7C5937",
"q  c #765538",
"w  c #7A5639",
"e  c #76583E",
"r  c #7C593B",
"t  c #587E2C",
"y  c #745742",
"u  c #755941",
"i  c #7A5C42",
"p  c #755C48",
"a  c #695F58",
"s  c #7B6148",
"d  c #66635D",
"f  c #6A645D",
"g  c #71675E",
"h  c #696662",
"j  c #656961",
"k  c #6E6A66",
"l  c #6B6C6C",
"z  c #736A63",
"x  c #815C3C",
"c  c #885F3C",
"v  c #87603F",
"b  c #88613F",
"n  c #856143",
"m  c #8D6645",
"M  c #8F6846",
"N  c #8E6748",
"B  c #8C6A4C",
"V  c #906745",
"C  c #926946",
"Z  c #986B47",
"A  c #946B49",
"S  c #9A6E4A",
"D  c #9B704B",
"F  c #8D6C50",
"G  c #926F51",
"H  c #967151",
"J  c #A4794F",
"K  c #A37652",
"L  c #A57954",
"P  c #AB7C55",
"I  c #AD7E59",
"U  c #B17F56",
"Y  c #B17F59",
"T  c #857D74",
"R  c #897E73",
"E  c #508F26",
"W  c #57872F",
"Q  c #568A2C",
"!  c #5B8A2E",
"~  c #519027",
"^  c #54932A",
"/  c #58962C",
"(  c #54992B",
")  c #59992E",
"_  c #5E8633",
"`  c #5C8C33",
"'  c #5E9434",
"]  c #5E9D34",
"[  c #608D32",
"{  c #609335",
"}  c #619D36",
"|  c #639539",
" . c #6A953E",
".. c #669B3C",
"X. c #699C3E",
"o. c #5EA135",
"O. c #5FA138",
"+. c #61A037",
"@. c #62A836",
"#. c #64A43A",
"$. c #68A73E",
"%. c #66A93C",
"&. c #69A83F",
"*. c #6D9340",
"=. c #6C9E42",
"-. c #709E42",
";. c #7F9C4F",
":. c #6DA243",
">. c #6CAB42",
",. c #71A246",
"<. c #71AE44",
"1. c #7BA64B",
"2. c #7CAE4D",
"3. c #6DB243",
"4. c #6FB249",
"5. c #71B146",
"6. c #75B44B",
"7. c #7BB34D",
"8. c #79B94E",
"9. c #7CAD51",
"0. c #7DBC53",
"q. c #7DC155",
"w. c #AE8056",
"e. c #AE8058",
"r. c #B28056",
"t. c #B4835A",
"y. c #B9855B",
"u. c #81B14E",
"i. c #84AB55",
"p. c #8CA758",
"a. c #8BAB59",
"s. c #83B452",
"d. c #83BC55",
"f. c #89BA57",
"g. c #8EB45D",
"h. c #8CBD5B",
"j. c #93B65D",
"k. c #90BB5F",
"l. c #84827C",
"z. c #89827A",
"x. c #8EBF60",
"c. c #91BB62",
"v. c #81C055",
"b. c #8EC15D",
"n. c #91C15E",
"m. c #8FC060",
"M. c #93C362",
"N. c #94C964",
"B. c #9ACA67",
"V. c #9CCC6C",
"C. c #848584",
"Z. c #858887",
"A. c #858788",
"S. c #838888",
/* pixels */
"6.6.6.6.8.6.8.6.6.6.6.5.:.%.%.#.$.#.%.$.>.<.<.>.] ] ] #.>.>.>.>.8.0.0.0.8.6.6.6.>.>.>.&.$.$.$.$.:.&.&.&.+.} #.] ^ E E ^ %.>.>.3.",
"6.6.6.6.7.6.6.8.6.6.6.5.:.#.%.#.#.$.#.$.>.<.<.<.#.] ] O.>.>.:.>.0.q.0.0.6.0.0.6.>.>.>.$.&.$.$.%.&.>.&.&.#.#.o.} ^ E E E :.>.<.>.",
"6.6.6.6.6.8.7.6.6.6.6.5.%.%.#.#.$.#.#.#.>.<.<.<.o.] ..O.$.>.>.>.0.0.0.0.6.6.6.6.>.>.>.&.>.$.$.$.#.>.&.&.#.] #.] ^ E ^ ^ >.<.>.<.",
"6.6.6.6.6.6.6.6.6.6.4.5.:.$.$.:.$.$.&.$.=.:.=.=.+.o.#.O.>.&.>.>.6.0.0.8.8.0.8.7.<.>.>.<.%.$.$.&.>.%.>.%.#.#.O.O.^ ^ ^ ^ :.>.<.<.",
"6.7.6.6.>.>.>.<.u.f.f.s.7.7.2.2.2.7.u.1.1 # # $  .&.&.%.#.+.#.#.#.#.#.%.d.b.b.b.h.h.h.d.6.<.6.>...O.#.#.:.&.>.&.:.#.#.#.>.>.>.>.",
"6.6.6.6.>.>.>.<.d.f.f.f.u.u.u.u.u.s.s.1.$ X X $ ..&.&.&.#.#.+.#.] } ] #.h.M.M.n.n.n.b.h.6.6.6.6.#.O.] #.>.>.>.>.%.#.>.#.>.>.>.>.",
"6.6.6.6.3.>.>.<.d.f.f.f.u.u.u.u.u.s.s.1., X o # | &.&.%.#.#.#.#.} ] ] #.h.M.M.M.c.m.m.h.7.6.6.<.#.@.+.@.&.>.>.>.>.%.>.%.>.>.%.>.",
"6.7.8.6.:.X.X.$.f.f.f.f.u.u.2.2.u.u.u.1.$ . o + | &.&.%.] { ' ' ] #.] #.h.M.b.n.h.M.b.h.7.6.6.6.{ { ' | %.>.&.>.%.#.%.O.] *.=.] ",
"f.h.h.i.; + + 6 j.B.B.M.>.%.%.%.&.>.&.:.$   . + X.5.<.,.& # O $ ,.6.6.6.0.v.v.d.m.b.n.n.M.M.M.h.7 # # @ ! ] ( ] ] O.o.} * # + + ",
"h.h.h.i.> X o # j.V.V.N.:.#.#.#.&.&.%...$   . $ ,.<.<.$.$ X X $ ,.6.6.6.0.q.q.q.b.M.b.M.B.N.N.k.6 X X + W ) ^ ^ ] O.o.| @ . o o ",
"h.h.b.i.$ o X , g.V.V.N.&.%.#.#.&.&.&.X.$   X + :.5.3.,.$ X X # :.6.6.6.q.q.d.v.m.m.k.M.N.N.N.m.6 X . + W ( ( ( ] o.o.] $ o . . ",
"i.i.i.;.- o # $ p.c.c.g.X.{ | | &.>.>.X.$     O  .:.$. .$ X   $ =.4.4.4.2.9.9.9.h.h.b.h.g.g.g.p.6 o + + t Q Q ^ ' ' ' ` % o . # ",
"# # # 3 d d j d - # 2 > + + # & =.6.>.:.$ o X o + + + # o o X O ' #.O.] ; = $ $ =.<.3.,.7 # # 2 8 8 8 8 # # # + $ # + + 8 8 8 8 ",
"o o X # h l l k #   X . . o X # =.6.6.:.# o o X . X o o o o . + ' ] O.' $ X X O =.>.>.%.$ o X o 8 8 8 8 # X X X X o o . 8 8 8 8 ",
"X X X # h l l h = X X X X X X $ :.6.6.>.$ X o X o X o X . o . + ' O.] ] $     # ..>.3.:.& . . o 5 r q 8 o o . X X . . + 8 9 w 9 ",
"# # # = d k k f = # # # > > + , *.:.-. .3 > # # # o o # o . + + _ ' ' ` $   . # | =.X...; # # # 8 9 q 8 > # # # . . . + < 9 9 9 ",
"N N N n r e e r m N m V J P e.K 3 + # 2 v V N m r 8 8 8 8 8 8 5 # $ # # o o o o # # $ = a h h f e 9 9 r n V V m : X . . 8 9 9 9 ",
"A A A C r q q r A A A D y.y.t.I , o X > m Z A A w w 9 9 9 9 9 8 # X X o o o o o . .   # h l l l u 9 8 r V A A V > o . . 8 8 9 9 ",
"A A A N r q q r M A Z S t.t.t.e., . X > m Z A V r 8 w w 9 9 w 8 # o o o o o o o   . X o h l l l y 9 9 q N A A V > o o . 8 w 8 w ",
"C A A N q 8 8 e C Z A S e.t.t.w., X o > m A A C q 8 8 8 5 8 8 8 # o o o o . o o . . o = a h h h e 9 9 0 N A A V < o o : 8 r 0 0 ",
"q r r q # o : > V A A Z S S S Z 8 8 8 q V Z A V , . o # # o o o o X o o 5 8 8 8 9 5 8 5 > # # # 8 9 9 9 w w w w 9 8 5 9 K r.U U ",
"q q q 8 o X X # m A Z A Z A A C w w w r C A Z V # X . . . o o X o . o . 5 r q 8 r 8 r 8 + . X o 5 9 9 9 8 r q 8 9 9 9 x P y.y.y.",
"q q w 8 o o o # N A Z A Z A Z A w r w r M Z A C : X X o . . X X . X o o 5 9 q 9 8 r 9 8 # . . . 8 w 9 9 9 r 9 r 9 8 q x I y.y.y.",
"r r r r : o o : m C B A A B C V i r e i m C C m < o o : : > > > > > , > 8 w q 0 w r r r < > > > 8 w 9 8 w w w w q q q w P t.t.t.",
"r.w.r.L w 8 8 8 r w w w r r q i T l.l.T i r r e q 8 8 r K P P I P P U L x 9 9 x L r.r.w.P P P L x 9 9 q N C C N x 9 w w C S S S ",
"y.y.y.r.x 9 q q 8 q w q 8 r 8 i l.S.S.l.r 9 q q q 9 q r U y.y.y.y.y.y.r.x 9 9 w P y.y.y.y.y.y.y.x 9 9 r C A Z A w 9 q r N A A A ",
"y.y.y.r.x 9 q 8 8 r 9 w q q r p l.Z.Z.l.i q e e q 8 q 0 P y.y.y.y.y.y.U x 9 9 x U y.y.y.y.y.y.r.x w r q V Z Z A x q 9 w A A A A ",
"Y Y e.P x q q r r r x r x i r p R C.l.R i e 0 r w r q 0 L Y Y Y Y t.y.P x 8 5 q J t.t.t.y.t.t.P x w 8 q N A C V x w w r A A A A ",
"r x x w r 9 8 r P I e.e.e.e.e.e.D G G G Z M M M w w 9 9 r x x x A S S A 2 o o , M D D D S D A A x 9 9 9 0 0 0 w m A A A A A A A ",
"r q 9 9 9 9 r r Y y.y.y.y.y.y.e.D A A A A A A A w q 9 9 9 9 8 w N A A C > X X : n A A A A A A A r 9 9 9 8 w 9 r M A A A A A A A ",
"8 8 9 9 9 9 8 r U y.y.y.t.t.t.t.D A A A A A A M r w w 9 9 9 8 0 C A A V > X . : m Z A A A A Z A r 9 9 9 9 9 q e M A A A A A A A ",
"r r 9 w 9 9 9 r L r.e.e.t.t.t.t.A A B C A A A A w w 8 w 8 8 8 9 m C C V > > o > M A A A C B C C w 9 9 9 9 9 q 0 n M M M M C B M ",
"M M C V 0 q 8 0 0 r r x Z A D A x w w i C A A C x q w 5 > o o 2 8 r 9 w m V V N A A A C x w w x 9 9 9 9 w 9 9 9 : > # > q w w w ",
"A A A B r q 8 w 0 q q e M A A C w 9 w w C A A A w q q 9 o X X o 5 8 9 0 V Z A A A A S C i q 9 9 9 9 9 9 q q 9 8 o X o o 8 q 9 9 ",
"A A A A r q q q w q 8 r A A Z M w 9 q w N S A C r q q q > X o o 5 q 9 9 C A A A A A Z A r q 9 9 9 9 9 9 8 q w q : X o o 8 q 9 9 ",
"M A C M r 0 0 q 8 q 8 q M M V N w 9 q w m m m m q 5 8 5 2 o o o 8 q 9 x M M A A C N A V w q 9 9 x w x x x x i i > o o > 8 r 0 0 ",
"r r r r M A M m : # o # 8 r r r 9 9 9 9 : > : : o o o : 4 8 8 8 9 9 9 w r r r r w x w w q 9 q r K Y Y Y Y Y Y Y r 8 8 q b C A V ",
"q r 8 w M A Z M : o X # 8 q 8 8 9 9 9 9 : X o o o X o : 8 q r q 9 9 9 8 q q 9 8 q q w q q q q r P y.y.y.y.y.y.Y v q q w V A A A ",
"9 9 9 r C Z Z M : X X . 8 q w w 8 r 9 5 > X X X X X o o 8 q q q 9 9 9 w q q 8 r q 9 q q w w r w I y.y.y.t.y.y.t.x w q r N Z S A ",
"9 9 8 r C A Z M > . # : r r r x r r r r : o o o > 2 > 2 q r r r 8 8 8 8 r x r r x r x x q 8 8 w P Y Y t.t.t.t.Y n e i i N C C C ",
"9 9 8 w C Z A M w 8 8 r P U U r.Y r.r.P r 8 8 w K P P L Z A A m > o o > K Y I t.Y e.r.I < . o > V S S S S S H G R l.l.R p r r r ",
"9 9 r r A C Z A w q 8 r I y.y.y.y.y.y.r.x q q r e.y.y.y.S Z A C > X o : L y.y.y.y.y.y.I < . . : N S A A A Z Z G z.A.S.C.s q q q ",
"8 r 8 w M A A A w 8 q r Y y.y.y.y.y.y.t.r q q 0 e.y.y.r.S A A C 2 X o > P y.y.y.y.y.y.e.4 . . . m A A A A Z Z A z.S.Z.C.i q w w ",
"w w w r M C B B r r q r P t.r.t.t.t.r.P b x r x P r.r.I D A A B 2 # = 2 L y.Y Y t.t.r.I 4 + . + v V V m A A Z G R l.l.T p 5 8 8 ",
"A V A N r 0 r r 9 9 8 r A S S S D D D D w.r.r.P b r r x A A A B h h h h G S S S D A A A r 8 8 8 > > o > n A Z Z i i r y 2 o > o ",
"Z A A Z r q q q 9 w 8 r C A Z A A A A Z r.y.y.r.r q e r C Z A A z l l k G Z Z A A A A A r q w 8 o o X > m Z S C x q q 9 : X X X ",
"Z Z A V 0 q 8 w 8 8 8 r C Z A Z A A A D r.y.y.r.r r q r C Z Z A z l l k F Z Z A Z Z Z A r q q 8 > X X o m Z A Z x 5 q 9 > X X X ",
"V A C C q 8 8 8 w r r r N A A A A A A D r.r.t.U n r r r N A C M z k k z B A A A Z A A N r q w 8 > o o > n A A V x x w x 2 > > > ",
"w w w 0 # o o > m V C m x r w x C Z A A A D D D w.w.w.w.v 9 q 0 q e e w r r 0 w w w w w q 9 9 9 5 9 5 9 w w 0 r J U e.e.I I I L ",
"q 9 9 8 + . o > N Z Z A w q q q A Z Z A A A A A t.y.y.w.v q 9 9 q 8 r 9 8 9 9 9 9 9 9 9 9 9 9 9 q w 9 q 9 9 w r L y.y.t.y.y.y.t.",
"9 9 9 8 . . . # m Z Z C w w w w C Z A A A A A A w.y.y.w.r q 8 q 9 q 9 9 9 9 w w 9 9 9 9 9 9 q q 9 9 9 9 w w w r P y.y.y.t.t.t.y.",
"9 9 9 8 , : o , m C N N x 9 9 w N A A M M A C Z w.t.t.w.v 0 r r r 9 8 8 8 8 8 q x x w x 9 9 8 5 9 9 9 w r r r x P t.r.y.t.t.t.t.",
"9 9 9 r m m M n x w r w 9 9 9 9 u i y i r r r 0 A S S A A A C M w w 9 8 > o : : K Y U P 4 o o > 5 9 9 w L Y U I D D D D H D D S ",
"9 9 9 r M C Z A w q q q 9 9 9 9 y u y y 8 q 8 r M A A A A Z Z C w w 9 8 o . . # L y.y.Y 4 X X o 8 9 9 0 P y.y.r.D A A A H A A Z ",
"8 w r r C Z Z A r q q w 5 9 9 9 y y y y q q 8 0 M A Z A A Z A A r q 9 8 : X . # P y.y.U 4 X o o 8 9 9 x P y.y.y.D S A A A A A A ",
"w w w r M C M M q 8 5 8 x x r i y y y y 8 8 8 w M A A M M M M m x r r r > > > 2 K U Y P 4 : : = 5 0 9 0 J r.t.I D A A A A A A A ",
"A M A M r r 0 8 : o o , K U U P r q q 8 # . . : q q r q > : # , K r.U U P P P L n i x v N V V m w 9 8 r w x r x C Z A A A A A A ",
"A A A M r 8 q 8 : o o : P y.y.t.x w w q # X . # 8 r 8 8 > X . > P y.y.y.y.y.y.y.x q 5 w V A A A w 9 9 9 w q w q M Z A A A A A A ",
"A A A A r 8 8 8 o o . > P y.y.U x 8 8 8 + X X o 5 w w 8 o X   + L y.y.y.y.y.y.r.x q w w V A A A r w q q 8 r q r M A A Z Z A A A ",
"A A A A r 8 0 8 > > : < P r.t.U x r r w : # . + e r r i : o + > L y.r.y.r.r.y.Y x q w w V V V V r r w w q r r r m A A M M M M M ",
"A A A A r 8 q r L w.P L D D D Z A B A M q 8 8 y T C.T T i 8 5 q A D A D D D H Z w 9 9 9 w w w x V C A C B A A M x r r r > # # : ",
"G A A M r q 9 r r.y.y.t.Z A A A A A A B r q 8 i T S.A.C.i q q 0 M A A A A A A A x 9 9 9 9 9 9 w V S A A A A A A r 8 8 8 + + o o ",
"A A A A r q q r r.y.y.r.D A A A A A Z C r 8 8 i T C.A.C.i q q 0 M A A A A A A A w 9 q 9 9 9 w w A A A A A A A A r r q 9 # o X o ",
"G A A M r q q r r.y.y.t.D A G A A A A A r q r p T A.S.l.i q q 0 M A A A A A A A x w 9 9 9 9 w w V A A S A A A Z r 8 r q # . X X "
};
