/* XPM */
static char *_575649763983[] = {
/* columns rows colors chars-per-pixel */
"64 64 206 2 ",
"   c #050B15",
".  c #070E19",
"X  c #080F1A",
"o  c #080F16",
"O  c #09111D",
"+  c #07101B",
"@  c #04080F",
"#  c #0C1523",
"$  c #0E1926",
"%  c #0C1729",
"&  c #0E1A2B",
"*  c #111C2D",
"=  c #101A27",
"-  c #0E1B31",
";  c #111E32",
":  c #14212F",
">  c #142235",
",  c #15243B",
"<  c #19263B",
"1  c #17283C",
"2  c #1A2A3D",
"3  c #192735",
"4  c #152542",
"5  c #172943",
"6  c #1A2C44",
"7  c #1A2E4B",
"8  c #172949",
"9  c #1D3046",
"0  c #1D324C",
"q  c #1B2F50",
"w  c #1D3353",
"e  c #1F3659",
"r  c #1E385D",
"t  c #21344C",
"y  c #223649",
"u  c #213653",
"i  c #233A54",
"p  c #213759",
"a  c #233B5C",
"s  c #283E5C",
"d  c #283F57",
"f  c #243D62",
"g  c #29415D",
"h  c #27415C",
"j  c #264164",
"k  c #2A4364",
"l  c #2E4A65",
"z  c #24446B",
"x  c #29456A",
"c  c #2C4A6D",
"v  c #314D6D",
"b  c #224575",
"n  c #264974",
"m  c #2C4C73",
"M  c #254A7B",
"N  c #284E7B",
"B  c #2A4771",
"V  c #314E72",
"C  c #2E5176",
"Z  c #2C537B",
"A  c #325276",
"S  c #33547B",
"D  c #35597E",
"F  c #3A5A7D",
"G  c #395678",
"H  c #37506E",
"J  c #2B5582",
"K  c #2D5986",
"L  c #2E5B89",
"P  c #325781",
"I  c #345B84",
"U  c #3A5D84",
"Y  c #335E8A",
"T  c #3B5F8A",
"R  c #3C6186",
"E  c #35628C",
"W  c #3B638C",
"Q  c #39678D",
"!  c #356491",
"~  c #3B6691",
"^  c #366A93",
"/  c #3B6A95",
"(  c #3D6D98",
")  c #405F84",
"_  c #41658D",
"`  c #466A8E",
"'  c #436B93",
"]  c #406E9A",
"[  c #446993",
"{  c #497298",
"}  c #3F68DC",
"|  c #436CDE",
" . c #4067DB",
".. c #4A71DE",
"X. c #4670DF",
"o. c #446DE0",
"O. c #4770E1",
"+. c #4B74E2",
"@. c #4E7AE3",
"#. c #5176E1",
"$. c #537CE4",
"%. c #587EE3",
"&. c #7B95AA",
"*. c #7E99AD",
"=. c #7892A7",
"-. c #7F9BB0",
";. c #5681E4",
":. c #5A84E5",
">. c #5E8AE6",
",. c #5E8AE8",
"<. c #5B84E8",
"1. c #618DE6",
"2. c #618DE9",
"3. c #6491E7",
"4. c #6993E7",
"5. c #6592E9",
"6. c #6996EA",
"7. c #6C9BEB",
"8. c #719EEC",
"9. c #74A3ED",
"0. c #79A6EC",
"q. c #7CAAEE",
"w. c #76A5F0",
"e. c #7CAAF0",
"r. c #7BA7F0",
"t. c #839DB3",
"y. c #85A1B5",
"u. c #89A6B5",
"i. c #82ADED",
"p. c #85B1EE",
"a. c #8BB5EE",
"s. c #8FB8EE",
"d. c #93BBEE",
"f. c #9ABFED",
"g. c #82AEF1",
"h. c #85B2F1",
"j. c #8AB5F2",
"k. c #8EB9F3",
"l. c #94BCF3",
"z. c #98BEF2",
"x. c #9CC1EE",
"c. c #9BC2F4",
"v. c #97C0F4",
"b. c #A2C5EF",
"n. c #ABCDEE",
"m. c #A7C9EF",
"M. c #BBD6EC",
"N. c #B8D5ED",
"B. c #A1C6F5",
"V. c #A5C9F5",
"C. c #ABCDF5",
"Z. c #ABCDF8",
"A. c #A5CAF8",
"S. c #B0CFF4",
"D. c #AFD1F6",
"F. c #AFD0F9",
"G. c #B4D2F4",
"H. c #BAD6F4",
"J. c #BED9F4",
"K. c #B4D3F9",
"L. c #BBD7F9",
"P. c #BED9F9",
"I. c #B0CFED",
"U. c #D4E3DB",
"Y. c #DAE5DC",
"T. c #DEE9DE",
"R. c #CFE0DA",
"E. c #E0EBDF",
"W. c #C4DCEC",
"Q. c #C9DEEB",
"!. c #C9DEE6",
"~. c #C3DCF4",
"^. c #C9DFF5",
"/. c #C4DCF9",
"(. c #C8DFFA",
"). c #CDE1E6",
"_. c #CDE1EC",
"`. c #D4E5E4",
"'. c #DBE7E1",
"]. c #DDE9E3",
"[. c #D3E5EC",
"{. c #DCECEC",
"}. c #D7E8EA",
"|. c #CCE2F4",
" X c #CDE1FA",
".X c #D3E5F4",
"XX c #D7E8F5",
"oX c #DCEBF4",
"OX c #D3E5FA",
"+X c #D7E8F9",
"@X c #DBEBF9",
"#X c #DFF0F0",
"$X c #E3EDE3",
"%X c #E9EEE4",
"&X c #E2EEEB",
"*X c #EAF1E7",
"=X c #E5F1EC",
"-X c #ECF4EC",
";X c #E7F0E7",
":X c #E1EEF5",
">X c #E0EEF9",
",X c #E4F2F4",
"<X c #EBF6F4",
"1X c #EDF8F6",
"2X c #E4F0F8",
"3X c #EAF7F8",
/* pixels */
"|  . . .} } } } } } } } } } X.X.o.o.O.O.O.+.+.+.@.@.@.$.$.$.$.$.$.$.$.$.$.$.$.$.;.;.;.;.;.@.;.;.@.@.;.@.@.@.@.@.@.@.@.@.@.@.@.@.",
"| X.| o.X.X. .X.X.X.....X...X.+.+.+.@.+.@.@.$.$.$.$.$.$.$.%.%.<.%.<.<.<.<.<.<.2.<.<.<.<.<.<.<.<.;.;.<.;.;.@.,.@.;.;.@.;.;.;.;.@.",
"....#.O.................+.+.@.@.@.$.@.;.$.;.;.;.<.<.<.,.<.,.,.<.2.2.2.2.2.2.2.2.,.,.,.,.,.,.,.,.,.,.<.<.,.,.,.;.,.,.;.,.;.>.;.;.",
"#.#.#.#.#.#.@.....@.;.;.$.;.;.;.;.:.:.:.<.<.,.,.<.,.2.2.2.2.2.2.2.2.2.2.2.5.5.5.5.5.5.5.2.5.5.2.5.,.5.,.,.5.,.,.,.,.,.,.>.>.>.>.",
"#.%.#.%.#.%.%.#.$.%.%.;.;.;.:.:.>.>.<.,.2.2.2.2.2.5.2.5.5.6.6.6.6.6.6.5.6.6.6.6.6.6.7.6.6.5.6.6.5.5.5.5.5.5.5.5.3.3.3.3.3.3.3.>.",
"%.%.%.%.%.;.:.;.:.:.:.:.>.>.>.>.1.,.,.1.2.5.5.2.5.6.5.6.6.7.7.6.6.7.7.6.7.7.7.7.7.7.7.7.7.7.7.7.7.7.7.7.6.5.6.6.7.3.3.3.3.7.3.3.",
"%.%.:.:.:.:.>.:.>.>.1.>.1.1.3.3.6.5.5.6.6.6.7.7.7.7.7.7.7.7.7.7.7.w.7.w.7.w.w.7.8.8.8.w.8.7.9.8.7.7.7.7.7.7.7.7.7.7.7.7.3.7.3.7.",
"1.1.1.1.>.1.1.1.1.3.5.3.5.5.6.6.6.6.6.7.7.7.7.8.w.7.w.8.w.w.w.w.w.w.w.w.w.w.w.w.w.w.w.w.w.w.w.w.w.w.w.w.w.7.w.7.7.7.9.7.9.7.7.7.",
"1.3.3.4.3.3.3.3.3.6.4.4.7.4.7.7.8.8.8.8.8.8.8.w.w.7.8.g.w.w.g.g.w.w.g.w.g.w.g.g.r.r.r.g.e.e.e.e.q.q.q.q.q.q.w.w.9.9.9.9.9.9.9.7.",
"3.4.4.4.3.4.4.4.7.7.7.7.7.8.9.9.8.8.9.w.w.r.r.r.r.g.g.g.g.g.g.g.g.g.g.g.g.g.g.g.g.g.g.g.e.e.h.e.e.e.q.p.q.q.q.q.q.q.9.q.q.9.9.9.",
"4.4.4.4.8.8.8.8.7.8.9.9.9.0.9.0.9.r.g.g.g.i.g.g.g.g.g.j.g.g.j.g.j.j.j.j.j.j.j.j.j.j.j.j.h.j.j.h.h.h.h.h.h.p.p.p.p.p.q.p.q.q.q.q.",
"4.0.8.8.8.8.9.9.0.0.0.0.0.q.q.q.r.g.g.g.g.g.g.j.h.h.j.j.j.k.k.j.k.k.k.k.k.k.k.k.k.k.k.k.k.k.k.k.k.k.k.h.s.h.h.h.p.p.p.p.p.p.p.q.",
"0.0.0.0.0.0.0.0.q.q.q.i.p.p.p.p.g.j.j.j.j.j.j.j.k.l.l.l.l.l.l.l.l.z.l.z.z.z.z.z.l.l.l.l.l.l.l.l.k.v.k.v.k.s.k.k.k.s.s.s.s.s.p.p.",
"i.0.i.0.0.i.i.i.i.p.p.p.p.a.h.a.k.j.j.k.l.l.l.l.l.l.z.l.z.z.B.z.c.c.c.c.c.c.c.z.c.c.c.z.c.c.c.v.v.v.v.v.v.v.v.v.s.s.k.d.s.s.s.s.",
"q.i.y.i.i.i.p.p.a.j.a.a.s.s.l.k.l.l.l.l.l.z.l.c.c.c.B.B.B.B.B.B.B.B.B.B.A.A.B.B.A.A.A.A.A.A.c.A.c.c.v.v.c.c.c.v.v.v.v.v.d.d.v.s.",
"p.p.p.a.a.a.s.s.s.l.d.d.l.l.l.z.z.z.c.c.c.B.B.B.B.B.B.B.A.A.A.Z.Z.A.Z.A.Z.Z.A.Z.A.A.A.A.A.A.A.A.A.A.A.A.V.c.V.V.c.c.v.x.v.x.x.v.",
"a.s.a.s.d.a.d.d.z.z.z.z.z.B.c.c.c.B.B.B.B.B.A.A.Z.Z.Z.Z.Z.Z.Z.Z.F.K.F.F.F.K.F.F.F.K.F.F.F.F.F.D.D.D.D.A.A.D.A.A.A.V.B.B.b.b.c.x.",
"d.d.d.d.f.f.x.f.z.x.B.x.B.B.B.B.B.C.A.C.D.C.Z.D.Z.Z.Z.S.K.K.K.K.K.K.K.K.K.K.K.K.K.K.K.K.F.K.K.D.D.D.D.D.D.D.D.D.D.C.D.D.V.V.n.V.",
"f.f.f.b.x.x.x.b.b.B.m.m.m.V.V.C.D.C.D.K.K.K.K.G.S.L.L.K./.K.L.K.P.P.K.P.P.P.P.P.P.P.P.P.L.L.L.L.K.J.J.D.K.J.D.D.D.D.D.D.D.D.n.V.",
"b.f.b.b.m.B.m.m.m.C.C.C.C.S.G.G.G.G.G.G.G.L.L.L.L.L././././././././. XP.P. XP.P.P./.P././.P.P.P.P.P.P.P.P.J.P.J.N.G.G.H.N.N.D.n.",
"m.m.m.m.m.n.D.n.S.I.S.S.G.G.H.G.G.L.J.L.J././.J././.^./.(././.(./. X X/. X X/. X X X X/. X XP. X(./.~.~././.J.J.J.J.J.J.N.J.N.N.",
"m.n.I.I.I.G.G.I.S.N.~.H.J.J.J.~./.~./././././. X^. X(. X X X X X X X X X XOX X X X X X X X X X|.(.|.(.(.^.~.^.~.~.~.J.~.J.J.J.H.",
"I.I.I.N.N.H.N.H.H.H.H.~.~.~.^.^.^.^. X^.|. X|. X X XOX X X XOXOXOXOX XOX+XOXOX+XOXOXOXOXOXOXOX|.|.(.|.|.|.|.|.|.|.^.W.^.W.~.~.J.",
"I.M.N.N.M.M.J.W.W.~.~.~.^.^.^.^. X|.OX|. X|.OXOXOXOXOX+X+X+X+XOX+X+X+X+X+X+X+X+X+X+X+XOX+XXX+XXXXXXX+XXXOXOX|.OX|._.|.|.|.|.W.W.",
"M.M.M.M.J._.M.|.J._.|.~.^.|..X|.|..X.X.X.X+X+X+XoX+X@X+X+X+X+X>X@X@X@X@X@X@X@X@X@X@X@X@X@X@XXX@X+X+XXXXXXX.XXX.XXX[.[.[.[.[.^.Q.",
"!.W.W.).M._.)._._._._.|.[..X.X.X.XXXXX+XoXoXoX@X@XoX>XoX>X:X>X>X>X2X2X@X@X2X>X2X@X2X2X>X#X>X>X>X#X#X#XoXXX#XXXXXXXXXXX[.|.[.|._.",
"!.W.).)._._._.[.[.[.[.[..X.X.XoXoXoXoXoX:XoXoX>X:X:X>X>X:X2X2X2X2X2X2X2X2X2X2X2X2X2X,X,X,X2X2X2X>X#X>X>X#X#X#X#X#XXX}.XXXX[.}.[.",
"!.!.)._.)._.[.).[.[.}..X}.{.oX{.{.oXoX,X:X>X,X,X2X:X,X,X<X2X2X,X2X3X3X2X2X3X2X3X<X,X3X,X,X,X,X,X2X2X,X,X,X#X#X#X#X#X#X}.}.#X}.}.",
").).).).[.[.}.[.[.{.oX{.{.oX&XoX:X,X,X,X,X,X,X,X<X<X<X,X<X<X1X<X1X1X1X1X1X3X1X3X1X1X1X1X3X<X<X<X3X3X,X,X,X,X,X,X#X#X#X#X#X#X{.{.",
").).`.`.`.}.}.{.{.{.{.{.&X&X:X,X,X=X,X<X=X<X<X<X<X3X1X1X3X<X1X1X1X1X1X1X1X1X1X1X1X1X1X1X<X<X1X<X3X,X<X<X<X<X=X,X=X=X#X#X#X#X#X{.",
").`.`.}.}.`.}.].}.{.{.&X&X&X,X=X=X-X,X,X<X<X<X<X<X<X-X1X-X1X1X1X1X1X1X1X1X1X1X1X1X1X1X1X<X<X1X<X<X<X<X=X=X=X=X=X=X=X;X;XE.#XE.T.",
"U.`.U.`.Y.].].].].$X$X$X&X$X$X&X=X;X*X*X*X*X*X-X-X-X-X-X-X-X-X-X-X-X-X-X-X-X-X-X-X-X-X-X-X-X-X-X;X;X;X;X;X;X=X$X;X$X#XE.E.T.T.T.",
"U.U.U.U.U.'.'.'.'.'.T.].].$X].$X$X$X$X$X$X*X*X;X%X%X%X%X*X%X-X%X*X*X*X*X*X*X*X-X-X*X*X;X;X;X%X%X$X$X$X$X$X$XE.E.T.T.T.Y.Y.Y.Y.U.",
"R.R.U.U.U.U.U.'.Y.T.T.T.T.T.T.T.T.$X$X$X$X$X%X&X%X%X%X:X%X%X%X&X%X%X*X*X*X%X%X%X%X&X%X%X$X%X%X$X$XT.$XE.T.].].T.T.T.Y.Y.Y.Y.Y.U.",
"=.=.=.=.&.&.&.&.&.&.&.*.*.*.*.*.t.&.t.t.t.t.t.t.t.t.t.t.t.t.t.t.t.t.t.t.y.t.t.t.t.t.y.t.y.u.u.u.u.u.u.u.u.u.u.u.u.u.u.u.u.u.u.u.",
"M M M M M M M N M J N J J J K K K L K L L K Y L L ! ! ! T T ! ! ~ ~ ~ ~ ( ~ [ ] ( ^ ( ( / / ^ ^ ^ ( ( ^ ( ~ ^ ! ^ ^ ^ E Q Q E D ",
"b b b M b b M M M N N N J J K K J L K K K Y Y Y ! ! ! ! T ! ~ ~ ~ / / ( ( / / ] ] ( ] ] / ( W / ( ( Q ~ ( ( / / ^ ^ ^ ! Q E E L ",
"b b b b n N n N N N N J J Z Z Y Y Y Y Y Y ~ T ~ ! ~ ~ [ ! T T Y ! T [ [ ~ ~ ~ ~ ~ T Y ~ ~ ~ ~ ~ ' ( W E / ( / ' Q Q E Q Q Q Q E ",
"b n r b z z n Z J K J Z Z m Z J Y E W Y I Y P I P ! / T P [ [ T T T ~ T T P P P W ~ T E / Q E W Q ~ E C R E S Y E P Z Y K Y K Y ",
"n n n z m z B Z C Z Z Z Z Z S D D I ~ I T P S P T ~ [ T P Y T ) T [ _ [ I T T T ~ ' ' { ' W Y Q Q R W E Q Q Y E Y U Q K D Y Q Q ",
"z z Z Z D Z C C Z Z P K A U I I S S U _ W T [ T P ) ) _ U U ) ) T T U _ _ { { [ T [ ] { [ [ W _ R Q ' _ Q E R ^ Q Q / Q R R R E ",
"f j z z n n z z j n n c z m D a z m S P A A U B V P T T U P ) ) _ T ) _ { _ _ ) _ ) [ _ ) _ U C U R D R R R Q R W R ~ R R E D I ",
"z z b z f r e 0 7 f z z f z c w p m m f B V G c S P B ) _ S P _ ) _ _ ) S V P P ) S U U F S m S D G D D R Q Q R U D I I D K D N ",
"z r z z r r j r e r x j z S C j f x B S S S x x S G f V U S P ) P S P U G G ` ) G S U _ U W { ) A D D D R R D A A C n n E C m Z ",
"r r r z j z m x B Z S Z Z I A A m m S S V f u a f G V ) U G G ) S G ) F ) ) ` ) G V G S A G U S C c Z F R Q D C C D Z D A A C C ",
"9 7 0 w q 0 h z c x c c j k a x B m f f a w 7 a f V S S V c ) P S v H V G f v v B V T U T U F G G A S S S c H Z D R D S C Z C j ",
"q w r f r a a r e 4 4 5 9 w f f w 7 u c G S k k V S v c V c H v B V f v x f H H G G G V c f c V c c c c C k m m C c x m N h r h ",
"- > ; , 7 q q , 4 8 4 4 8 w p f p 7 a f f w a j f f f V G H s f f B f q q 8 7 w q q a k c V c f V A C S A C c h c C v C m z j j ",
"q q q 7 r 7 q 7 8 q 6 7 e f c z f f f p x v f s u s s d u 7 8 4 u f f k f a c V G P U A c c c k G D c c m c j h r r w r w a f f ",
"8 q q 4 4 7 e e r e r a j f k f c f f s s f p f q q t 6 a u u q p f f 7 u p f p f k v H k j A l v v c k k l c c l j h c c c C n ",
"q w 8 r w w 9 e a h 8 , u p u k s s s u p f s v v s s f f s a s f l f f p s x s f f f s a s i 5 ; 5 0 7 9 9 0 7 8 w e h l j r h ",
"8 0 w e w 5 w 7 0 r j a u u t a u u 6 u f u t 4 7 u u p a f p 7 u q q a f a f s s f a 7 , w a a p u u 6 i w 5 1 1 w e h e r w 0 ",
"4 4 1 8 q w w w a k u u i 8 u 0 u p t 7 7 6 7 ; ; 4 6 u s i s i s s s s f v u t t t p s e i e h s s 0 0 6 , , 1 0 9 w 0 9 w r 6 ",
"a a 9 4 5 , > - & ; ; ; , , , 1 ; * ; 4 u 6 u w s s a s s s l s s t t 6 7 t s s a 8 6 6 9 i 0 t 6 u 6 5 > & % & ; ; > , & > , 4 ",
"- > - - # + + & , , , 5 t 6 6 0 9 6 6 i s p w t 7 i s i s u u q 7 u 8 6 6 ; < ; 7 7 4 ; 2 9 0 0 0 8 > , 5 9 8 4 , , 9 w 8 1 , 5 ",
"5 5 1 > 2 1 - , > 4 , 1 ; ; ; - ; ; ; 4 t 6 < * # # * = < , ; 4 ; ; 6 6 6 4 ; 6 6 6 6 7 h 0 9 w s i 9 9 u w h a r w 0 e e 9 8 5 ",
"> ; % # # # # O . . O # % * ; > ; ; < 6 2 ; % O % - ; > * : * * 8 t d s u 6 i l g l l l h 9 i 0 h l h y 9 i y 1 , 1 2 5 6 9 0 5 ",
"; ; & & - - ; ; , , , ; & & ; , 6 < 2 < < 7 6 5 q u s u u d u u y y t ; < 3 < 6 1 3 0 h 9 3 3 : : : : $ $ 1 5 1 5 w 9 5 5 , 1 1 ",
"6 6 1 6 4 , > > - ; % # # + # % O X # $ ; 6 , , 7 < < < * < % % # = ; & & = : : 1 1 : = = : > 1 1 & & # & 1 i i h 0 > 1 0 6 ; ; ",
"O + X O # # + + O X # & % # * > * ; 6 6 < 3 6 < ; < < = % = ; < ; 6 < 6 * O * 3 1 9 2 2 9 i 0 9 9 1 1 & 9 i y 9 9 2 9 3 6 1 5 9 ",
"  o   @ @   # % $ > , > > % $ : * < * * * = ; ; < < ; * < < < 3 * & 3 y 7 < t 9 9 9 2 2 y y 2 y y 1 : : 1 2 2 y i 9 1 * : $ : 3 ",
"    . O & 1 5 2 9 2 > * > > * * * * * * ; = 6 t ; > 6 7 2 y t t 7 y 6 9 < : 2 3 3 2 2 3 $ $ # $ 1 : : & 1 1 : 3 : 1 2 , & + + + ",
", , > > 1 1 3 3 * & * 3 : = * > * * < < : * = = * : < 6 2 2 9 y < 2 * = $ O X O $ + + o + + + o o $ : > 1 3 : $ # $ O * - * # # ",
"; & > > & & O $ # O X o + * , > < < = ; < ; = = * 3 * * 3 3 3 3 X X o   X o o X + + + $ + o + + + # $ : $ # # O + & * # O # - - "
};
